<svg width="48" height="44" viewBox="0 0 48 44" fill="none" xmlns="http://www.w3.org/2000/svg">
    <path
        d="M12.2287 28.6017L18.0245 20.1636C20.571 16.4562 21.8435 14.6035 23.7016 14.183C24.9689 13.8963 26.1693 14.3535 27.893 15.4209M12.228 28.6028C10.6121 30.9554 9.80414 32.1316 10.2187 33.035C11.02 34.7866 15.4427 33.8198 17.2181 33.8336C18.2472 33.8422 18.7626 33.8464 19.1538 34.1151C19.545 34.3838 19.7338 34.8633 20.1112 35.8207C20.7613 37.473 21.4462 41.9479 23.3687 42.0672C24.3607 42.1299 25.1686 40.9536 26.7845 38.601L32.5817 30.1609C35.1282 26.4535 36.4014 24.5997 36.1256 22.7166C35.9216 21.3155 35.702 20.7215 33.7902 19.3256"
        stroke="black" stroke-width="2" stroke-linecap="round" stroke-linejoin="round" />
    <path
        d="M7.72783 23.772L4.24561 21.0263C2.71564 19.82 1.95107 19.2171 1.84885 18.3683C1.74663 17.5195 2.34781 16.7579 3.54965 15.2336C4.75149 13.7094 5.35257 12.947 6.2011 12.8485C7.04953 12.7492 7.81452 13.3524 9.34449 14.5588L12.8276 17.3051C13.7984 18.0706 14.2838 18.4534 14.2109 18.9026C14.0707 19.7732 12.0532 20.0225 11.2903 20.2947C10.8482 20.4528 10.6267 20.5319 10.4897 20.7057C10.3526 20.8795 10.3274 21.1133 10.2768 21.5801C10.19 22.3855 10.4183 24.4054 9.60437 24.7449C9.18455 24.9206 8.69912 24.5378 7.72826 23.7723"
        stroke="black" stroke-width="2" stroke-linecap="round" stroke-linejoin="round" />
    <path
        d="M23.9197 27.7713C23.6863 28.0472 23.3577 28.2242 23.0064 28.2634C22.655 28.3026 22.3097 28.2008 22.0463 27.9803"
        stroke="black" stroke-width="2" stroke-linecap="round" stroke-linejoin="round" />
    <path
        d="M38.9324 4.78207L36.4473 6.34903L41.4844 11.0404L41.9416 11.0905L42.4984 10.2318L43.105 8.91872L44.2187 7.20136L44.3682 5.83813L43.1961 3.87008L41.4174 3.21513L38.9324 4.78207Z"
        fill="black" stroke="black" />
    <path
        d="M19.6228 24.9547C20.7036 23.6776 23.0361 23.4736 24.5406 23.4881C24.9297 23.4885 25.3244 23.6371 25.6414 23.9024C25.9585 24.1677 26.1731 24.529 26.24 24.9102C26.5106 26.3818 26.7074 28.702 25.6266 29.979C24.567 31.231 22.3401 31.5677 20.475 30.0069C18.61 28.4461 18.5632 26.2067 19.6228 24.9547Z"
        stroke="black" stroke-width="2" stroke-linecap="round" stroke-linejoin="round" />
    <path
        d="M34.3564 9.18868L27.7793 16.1667C27.1767 16.8041 26.8429 17.6503 26.8476 18.5291C26.8513 19.671 26.8537 20.2419 26.7735 20.4458C26.6932 20.6497 26.502 20.8536 26.1197 21.2593L25.5271 21.8868C25.3198 22.1069 25.2084 22.4007 25.2174 22.7034C25.2264 23.0062 25.355 23.2932 25.5751 23.5013C25.7951 23.7094 26.0884 23.8216 26.3906 23.8131C26.6928 23.8046 26.979 23.6762 27.1863 23.4561L27.7778 22.8296C28.1612 22.4229 28.3524 22.22 28.551 22.1291C28.7495 22.0362 29.3185 22.0049 30.4564 21.9446C31.3319 21.8988 32.1555 21.5167 32.7559 20.8777L34.6768 18.8408L37.7696 15.5583M37.7696 15.5593L39.334 13.8996M44.3741 8.32645L42.8128 9.983C42.6164 10.191 42.4631 10.4358 42.3614 10.7035C42.2596 10.9711 42.2116 11.2563 42.22 11.5427C42.2284 11.8292 42.2931 12.1112 42.4104 12.3728C42.5276 12.6343 42.6951 12.8703 42.9033 13.0671L34.9822 5.57033C35.1902 5.76739 35.4348 5.92151 35.7021 6.02388C35.9694 6.12625 36.2541 6.17487 36.5399 6.16694C36.8258 6.15901 37.1072 6.0947 37.368 5.97768C37.6289 5.86066 37.8641 5.69323 38.0601 5.48496L39.6215 3.82841C39.9153 3.51452 40.2681 3.26193 40.6598 3.08512C41.0514 2.90832 41.4742 2.81079 41.9039 2.79812C42.3335 2.78545 42.7616 2.85789 43.1635 3.01129C43.5655 3.16469 43.9334 3.39602 44.2461 3.69203C44.5589 3.98804 44.8104 4.3429 44.9861 4.73626C45.1619 5.12962 45.2585 5.55374 45.2704 5.9843C45.2823 6.41485 45.2092 6.84338 45.0554 7.2453C44.9016 7.64722 44.6701 8.01463 44.3741 8.32645Z"
        stroke="black" stroke-width="2" stroke-linecap="round" stroke-linejoin="round" />
    <path
        d="M33.2233 18.872L27.7376 18.2703L27.4658 20.7489L26.4609 21.4749L26.325 22.7142L27.2392 22.8144L28.7466 21.7255L31.1229 21.15L33.2233 18.872Z"
        fill="black" stroke="black" />
</svg>